HIERARCHY
ROOT ui
{
	 OFFSET 0 0 0
	 CHANNELS 3 XPosition YPosition Z Position
	 EndSite
	 {
	 OFFSET 0 -1 0
	 }
}
ROOT li
{
	 OFFSET 0 0 0
	 CHANNELS 3 XPosition YPosition Z Position
	 EndSite
	 {
	 OFFSET 0 -1 0
	 }
}
ROOT ul
{
	 OFFSET 0 0 0
	 CHANNELS 3 XPosition YPosition Z Position
	 EndSite
	 {
	 OFFSET 0 -1 0
	 }
}
ROOT ll
{
	 OFFSET 0 0 0
	 CHANNELS 3 XPosition YPosition Z Position
	 EndSite
	 {
	 OFFSET 0 -1 0
	 }
}
ROOT tt
{
	 OFFSET 0 0 0
	 CHANNELS 3 XPosition YPosition Z Position
	 EndSite
	 {
	 OFFSET 0 -1 0
	 }
}
ROOT tb
{
	 OFFSET 0 0 0
	 CHANNELS 3 XPosition YPosition Z Position
	 EndSite
	 {
	 OFFSET 0 -1 0
	 }
}
ROOT td
{
	 OFFSET 0 0 0
	 CHANNELS 3 XPosition YPosition Z Position
	 EndSite
	 {
	 OFFSET 0 -1 0
	 }
}
ROOT v
{
	 OFFSET 0 0 0
	 CHANNELS 3 XPosition YPosition Z Position
	 EndSite
	 {
	 OFFSET 0 -1 0
	 }
}
ROOT bn
{
	 OFFSET 0 0 0
	 CHANNELS 3 XPosition YPosition Z Position
	 EndSite
	 {
	 OFFSET 0 -1 0
	 }
}
MOTION
Frames: 29
Frame Time: 0.002
-0.002159198045730591	3.448840081691742E-4	0		0.4938192138671875	-2.3867734375	0		-1.1198564453125	0.08406938934326172	0		-0.765306396484375	-2.609602294921875	0		1.4428863525390625	-0.6902470703125	0		3.023604736328125	0.016985708236694336	0		4.55152978515625	0.22607205200195313	0		5.653548828125	0.1714415588378906	0		-0.29971578979492186	5.86850537109375	0		
0.00437026309967041	-0.012469535827636718	0		0.4942587280273438	-2.386326171875	0		-1.1201243896484374	0.08405443572998048	0		-0.723069580078125	-2.625241943359375	0		1.46281982421875	-0.6908750610351563	0		3.02335595703125	0.018157112121582032	0		4.55532470703125	0.23361061096191407	0		5.6605029296875	0.1692414245605469	0		-0.43401904296875	5.8480185546875	0		
0.019274272918701173	-0.002410975933074951	0		0.47957778930664063	-2.389619140625	0		-1.14153173828125	0.07742241668701172	0		-0.7864047241210937	-2.61203369140625	0		1.451708251953125	-0.6919715576171875	0		3.041823974609375	0.0039773499965667725	0		4.54885693359375	0.2272760467529297	0		5.65686376953125	0.1846857147216797	0		-0.405567626953125	5.86669921875	0		
0.007208152770996094	0.011117860794067383	0		0.48602703857421875	-2.382272705078125	0		-1.1034742431640625	0.0988082275390625	0		-0.748003173828125	-2.611552978515625	0		1.4516005859375	-0.6912713012695313	0		3.025076416015625	0.03737112045288086	0		4.562609375	0.23454283142089843	0		5.66310693359375	0.18748550415039061	0		-0.27502420043945314	5.88669482421875	0		
-0.003262455940246582	0.001619452953338623	0		0.4972860107421875	-2.383003662109375	0		-1.1159990234375	0.08707254028320313	0		-0.7527689819335938	-2.617318603515625	0		1.445565673828125	-0.6844861450195312	0		3.027382080078125	0.015394558906555176	0		4.54939990234375	0.24520176696777343	0		5.6564990234375	0.19067449951171875	0		-0.3060733337402344	5.86844384765625	0		
-0.0035819499492645264	0.0019594039916992186	0		0.4975090026855469	-2.3825498046875	0		-1.1163380126953124	0.08715934753417968	0		-0.7284141235351562	-2.612542236328125	0		1.4682193603515625	-0.6951910400390625	0		3.022158203125	0.022504898071289064	0		4.55979443359375	0.23239950561523437	0		5.65978076171875	0.1812090301513672	0		-0.30772750854492187	5.86871435546875	0		
-0.006964291095733642	-6.457210183143616E-4	0		0.4696967163085938	-2.380646484375	0		-1.1597330322265624	0.0849652099609375	0		-0.7543072509765625	-2.61892822265625	0		1.442164306640625	-0.686116455078125	0		3.026721923828125	0.017408458709716797	0		4.55352490234375	0.24080274963378906	0		5.65608154296875	0.1960911102294922	0		-0.44263531494140623	5.8491455078125	0		
-0.004263700962066651	0.002655426025390625	0		0.4806975402832031	-2.387379150390625	0		-1.156033203125	0.08902716827392577	0		-0.7412605590820313	-2.625929931640625	0		1.4478377685546875	-0.6925813598632813	0		3.031578125	0.03126363563537598	0		4.55313134765625	0.24203480529785157	0		5.66001953125	0.18110177612304687	0		-0.44889059448242186	5.86348828125	0		
-0.0046212167739868165	0.003006659984588623	0		0.44901931762695313	-2.370439697265625	0		-1.156406005859375	0.08917449951171875	0		-0.7499782104492188	-2.614568603515625	0		1.450666015625	-0.6880208740234375	0		3.034978515625	0.01709111022949219	0		4.55582568359375	0.24914479064941406	0		5.66496875	0.21263565063476564	0		-0.31120834350585935	5.867568359375	0		
0.00487364912033081	-0.005798649787902832	0		0.49787796020507813	-2.38077978515625	0		-1.1178037109375	0.08772933959960938	0		-0.7519490356445313	-2.61630810546875	0		1.4414622802734376	-0.684295654296875	0		3.038815185546875	0.030868654251098634	0		4.5531103515625	0.2302660827636719	0		5.661794921875	0.20280596923828126	0		-0.28419668579101565	5.88842919921875	0		
0.004510078907012939	-0.0054520821571350095	0		0.4698850402832031	-2.378927734375	0		-1.161222412109375	0.085574462890625	0		-0.7668621826171875	-2.61184228515625	0		1.461181396484375	-0.6850452270507813	0		3.02344775390625	0.031896554946899414	0		4.56191162109375	0.24414588928222655	0		5.66448095703125	0.21683729553222655	0		-0.3137547607421875	5.86816796875	0		
-0.00875730037689209	0.0010860340595245362	0		0.4937672119140625	-2.383891845703125	0		-1.1235999755859376	0.0851737060546875	0		-0.7678995361328125	-2.613591796875	0		1.446822509765625	-0.69029248046875	0		3.020005615234375	0.027692821502685545	0		4.55541064453125	0.23819731140136718	0		5.65905859375	0.18951591491699218	0		-0.4482194213867188	5.84950439453125	0		
0.003795341968536377	-0.004781021118164063	0		0.45472982788085936	-2.38190673828125	0		-1.150977294921875	0.08477469635009766	0		-0.7431282958984375	-2.626735107421875	0		1.4465540771484375	-0.6897810668945312	0		3.0414931640625	0.018067459106445312	0		4.5491181640625	0.2451871337890625	0		5.6710732421875	0.21160386657714844	0		-0.28571502685546873	5.8872978515625	0		
0.010542194366455078	0.001435034990310669	0		0.5106393432617188	-2.383376953125	0		-1.103365966796875	0.08224043273925781	0		-0.7499723510742188	-2.613394775390625	0		1.4513951416015625	-0.6823687744140625	0		3.04144921875	0.038737335205078126	0		4.5587451171875	0.24588214111328124	0		5.677248046875	0.21131135559082032	0		-0.28673648071289065	5.8875869140625	0		
-0.006739573001861572	0.005002668857574463	0		0.4716745300292969	-2.375427001953125	0		-1.119611572265625	0.08867383575439453	0		-0.7540811767578125	-2.61710205078125	0		1.4660181884765624	-0.6901251831054688	0		3.028773681640625	0.01655661964416504	0		4.55430126953125	0.24074172973632812	0		5.6593447265625	0.237751953125	0		-0.317974609375	5.86931982421875	0		
0.0028145101070404053	-0.003843554973602295	0		0.5023580017089844	-2.391537353515625	0		-1.124974853515625	0.08593978881835937	0		-0.7571915283203124	-2.62082958984375	0		1.43989794921875	-0.6812919921875	0		3.018656005859375	0.030306144714355467	0		4.55008642578125	0.2495537109375	0		5.6633056640625	0.22177876281738282	0		-0.31886651611328126	5.86959033203125	0		
-0.007340606212615967	0.005594610214233398	0		0.4694981689453125	-2.3767138671875	0		-1.1252723388671875	0.08612776184082031	0		-0.7243184204101563	-2.62609521484375	0		1.462505615234375	-0.6922077026367187	0		3.032243896484375	0.022667829513549804	0		4.5536552734375	0.2422035675048828	0		5.6702080078125	0.21772296142578124	0		-0.45300473022460935	5.8498203125	0		
0.014346849441528321	0.0025496530532836915	0		0.47830010986328125	-2.38552685546875	0		-1.1525570068359374	0.0857082748413086	0		-0.7572850952148438	-2.62039306640625	0		1.445359130859375	-0.6875560302734375	0		3.042180908203125	0.037054195404052734	0		4.55745654296875	0.24880751037597656	0		5.67295263671875	0.23102996826171876	0		-0.42445907592773435	5.87063232421875	0		
0.002021409034729004	-0.0030087010860443113	0		0.4543228759765625	-2.379874755859375	0		-1.1207474365234376	0.08941468048095703	0		-0.7172800903320312	-2.617772705078125	0		1.46821533203125	-0.6845155029296875	0		3.031735595703125	0.023703435897827148	0		4.55231591796875	0.2574993896484375	0		5.6762724609375	0.21827755737304688	0		-0.3201666259765625	5.86932861328125	0		
0.0018113290071487427	-0.0027603878974914553	0		0.49529486083984375	-2.379190185546875	0		-1.1640032958984374	0.08720761871337891	0		-0.7573405151367187	-2.619994384765625	0		1.4450133056640626	-0.6868262329101562	0		3.050710693359375	0.03689308166503906	0		4.55288330078125	0.24406369018554688	0		5.672646484375	0.23337242126464844	0		-0.31981600952148437	5.86853955078125	0		
-0.008238149642944335	0.006613467216491699	0		0.469320556640625	-2.37555078125	0		-1.1261942138671874	0.08680876159667969	0		-0.7233917236328125	-2.6233076171875	0		1.4589639892578126	-0.6807022094726562	0		3.031341064453125	0.024605283737182616	0		4.5636845703125	0.2444415283203125	0		5.6760068359375	0.22045999145507814	0		-0.3213784484863281	5.86976220703125	0		
-0.0015776710510253906	-0.006276900768280029	0		0.4761600341796875	-2.386411376953125	0		-1.1643466796875	0.08749529266357423	0		-0.7593591918945313	-2.62162451171875	0		1.4388724365234375	-0.6791123046875	0		3.01730517578125	0.033207069396972655	0		4.55251953125	0.24509748840332032	0		5.672421875	0.23539720153808594	0		-0.4552027587890625	5.84987109375	0		
0.001360388994216919	-0.002132807970046997	0		0.4782096252441406	-2.384224609375	0		-1.147573486328125	0.08037105560302735	0		-0.7464260864257812	-2.62866748046875	0		1.44469189453125	-0.6859253540039062	0		3.04393701171875	0.016186506271362304	0		4.55728466796875	0.23848213195800783	0		5.68068505859375	0.19966790771484375	0		-0.45370986938476565	5.84700341796875	0		
0.00835962200164795	0.003930588006973266	0		0.48435507202148437	-2.37712060546875	0		-1.143607177734375	0.08441398620605468	0		-0.7521514892578125	-2.61346044921875	0		1.4477008056640626	-0.6817246704101563	0		3.03923681640625	0.04358773803710937	0		4.55637109375	0.2519113311767578	0		5.67814453125	0.26286141967773435	0		-0.3208040771484375	5.86823779296875	0		
0.0012235629558563232	-0.0018294990062713624	0		0.5042990112304687	-2.386239990234375	0		-1.12662158203125	0.08725028228759765	0		-0.7231959838867188	-2.622773193359375	0		1.438729248046875	-0.6783812866210938	0		3.02685693359375	0.02106037712097168	0		4.55832080078125	0.25326202392578123	0		5.67225439453125	0.23786325073242187	0		-0.32215008544921875	5.86937451171875	0		
0.0012080219984054565	-0.0017165470123291016	0		0.493490966796875	-2.37994580078125	0		-1.1266417236328126	0.087305908203125	0		-0.7590604858398438	-2.62118603515625	0		1.4646319580078124	-0.6865635986328125	0		3.0260107421875	0.03334010696411133	0		4.54910888671875	0.24073570251464843	0		5.675181640625	0.25229124450683593	0		-0.3224640808105469	5.869470703125	0		
-0.0018285759687423706	-0.005588127136230469	0		0.50249951171875	-2.38896240234375	0		-1.1266263427734375	0.08733595275878907	0		-0.7609398803710937	-2.623109375	0		1.4416593017578125	-0.6880803833007813	0		3.026858642578125	0.021561662673950197	0		4.55301708984375	0.23398928833007812	0		5.67519970703125	0.25291645812988284	0		-0.45701715087890626	5.8504384765625	0		
0.0012822469472885132	-0.0015733389854431152	0		0.45278558349609377	-2.3801767578125	0		-1.1476727294921876	0.08063666534423829	0		-0.7478604736328125	-2.630270751953125	0		1.44478857421875	-0.6849967041015625	0		3.030264404296875	0.046718677520751956	0		4.55224365234375	0.24727662658691407	0		5.68944580078125	0.24261106872558594	0		-0.32197286987304685	5.86856884765625	0		
0.026354251861572267	-0.0028946800231933593	0		0.5069359436035156	-2.383884765625	0		-1.1095916748046875	0.08007970428466797	0		-0.7456232299804687	-2.628303466796875	0		1.4479644775390625	-0.6809429931640625	0		3.035970703125	0.019806167602539063	0		4.55232080078125	0.24751573181152345	0		5.68951318359375	0.24310986328125	0		-0.32313998413085937	5.86959765625	0		
